<?xml version="1.0" encoding="utf-8"?>
<!-- Generator: Adobe Illustrator 27.7.0, SVG Export Plug-In . SVG Version: 6.00 Build 0)  -->
<svg version="1.1" id="Layer_1" xmlns="http://www.w3.org/2000/svg" xmlns:xlink="http://www.w3.org/1999/xlink" x="0px" y="0px"
	 viewBox="0 0 720 720" style="enable-background:new 0 0 720 720;" xml:space="preserve">
<style type="text/css">
	.st0{fill:#4D9CD3;}
</style>
<g>
	<path class="st0" d="M374.28,250.41v95.01h95.01C462.7,296.13,423.57,257,374.28,250.41L374.28,250.41z"/>
	<path class="st0" d="M344.79,469.92v-95.01h-95.01c1.44,10.77,4.43,21.05,8.74,30.61c4.53-1.7,9.44-2.63,14.56-2.63
		c22.93,0,41.53,18.59,41.53,41.53c0,5.5-1.08,10.75-3.02,15.56C321.87,464.94,333.04,468.35,344.79,469.92L344.79,469.92z"/>
	<path class="st0" d="M374.28,146.85v73.87c65.57,6.88,117.82,59.14,124.71,124.71h73.87c-2.76-40.32-16.74-77.61-38.84-108.75
		c-2.43,0.44-4.92,0.68-7.47,0.68c-22.93,0-41.53-18.59-41.53-41.53c0-2.78,0.28-5.49,0.8-8.12
		C454.12,164.44,415.81,149.69,374.28,146.85L374.28,146.85z"/>
	<path class="st0" d="M374.28,469.92c49.29-6.59,88.42-45.72,95.01-95.01h-95.01V469.92L374.28,469.92z"/>
	<path class="st0" d="M516.35,484.95c5.2,0,10.17,0.96,14.75,2.71c23.78-31.92,38.87-70.68,41.75-112.74h-73.87
		c-6.88,65.57-59.14,117.82-124.71,124.71v73.87c37.64-2.58,72.64-14.94,102.46-34.55c-1.24-3.93-1.9-8.12-1.9-12.46
		C474.83,503.54,493.42,484.95,516.35,484.95L516.35,484.95z"/>
	<path class="st0" d="M249.78,345.42h80.03l-68.3-36.72C255.58,319.94,251.53,332.32,249.78,345.42L249.78,345.42z"/>
	<path class="st0" d="M701.53,374.91H602.4c-2.88,48.48-19.92,94.26-49.15,132.53c2.95,5.7,4.62,12.17,4.62,19.03
		c0,22.93-18.59,41.53-41.53,41.53c-7.72,0-14.94-2.11-21.13-5.78c-35.78,24.14-77.27,38.22-120.95,40.82v99.13
		C551.6,694.65,694.02,552.24,701.53,374.91L701.53,374.91z"/>
	<path class="st0" d="M374.28,18.17v99.13c46.31,2.75,90.16,18.43,127.36,45.3c6.94-5.21,15.56-8.29,24.9-8.29
		c22.93,0,41.53,18.59,41.53,41.53c0,9.58-3.25,18.39-8.7,25.41c25.49,36.5,40.36,79.18,43.03,124.17h99.13
		C694.02,168.09,551.6,25.68,374.28,18.17L374.28,18.17z"/>
	<path class="st0" d="M344.79,702.17v-99.13c-59.45-3.53-114.85-28.35-157.31-70.81c-42.46-42.46-67.28-97.86-70.81-157.31H17.53
		C25.05,552.24,167.46,694.65,344.79,702.17L344.79,702.17z"/>
	<path class="st0" d="M146.21,345.42h73.87c1.9-18.14,7.29-35.26,15.46-50.69l-64.82-34.85
		C156.94,285.71,148.32,314.69,146.21,345.42L146.21,345.42z"/>
	<g>
		<path class="st0" d="M344.79,250.41c-13.99,1.87-27.16,6.36-39.01,12.97l39.01,73.38V250.41L344.79,250.41z"/>
		<path class="st0" d="M344.79,18.17c-53.32,2.26-103.48,16.71-147.76,40.64l46.45,87.38c30.99-16.86,65.41-26.76,101.31-28.89
			V18.17L344.79,18.17z"/>
		<path class="st0" d="M344.79,146.85c-31.48,2.15-61.11,11.14-87.4,25.5l34.55,65c15.98-8.83,33.86-14.63,52.85-16.63V146.85
			L344.79,146.85z"/>
	</g>
	<path class="st0" d="M144.61,245.84l-87.14-46.85c-23.51,43.96-37.69,93.65-39.93,146.43h99.13
		C118.76,310.19,128.32,276.38,144.61,245.84L144.61,245.84z"/>
	<path class="st0" d="M344.79,573.49v-73.87c-19.6-2.06-38-8.17-54.36-17.47c-5.28,2.43-11.15,3.8-17.35,3.8
		c-22.93,0-41.53-18.59-41.53-41.53c0-6.57,1.54-12.79,4.26-18.31c-8.32-15.56-13.8-32.85-15.73-51.19h-73.87
		C153.48,481.1,238.6,566.22,344.79,573.49L344.79,573.49z"/>
</g>
</svg>
